# xmcd
#
# Track frame offsets:
# 150
# 12134
# 28398
# 46554
# 64091
# 82318
# 97838
# 113097
# 126695
# 139385
# 157987
# 173313
# 199163
# 215982
# 242870
# 263861
# 288624
# 313142
#
# Disc length: 4433 seconds
#
#
# Revision: 0
# Processed by: cddbd v1.5.1PL0 Copyright (c) Steve Scherf et al.
# Submitted via: FreeRIP 2.92 
#
DISCID=0e114f12
DTITLE=Lynyrd Skynyrd - Endangered Species
DYEAR=1900
DGENRE=Blues
TTITLE0=Dowm South Jukin'
TTITLE1=Heartbreak Hotel
TTITLE2=Devil In a Bottle
TTITLE3=Things Goin' On
TTITLE4=Satuerday Night Special
TTITLE5=Sweet Home Alabama
TTITLE6=I Ain't The On
TTITLE7=An I Losin
TTITLE8=All I Have Is a Song
TTITLE9=Poison Whiskey
TTITLE10=Good Lucky, Bad Lucky
TTITLE11=The Last Rebel
TTITLE12=Hillbilly Blues
TTITLE13=Simple Man
TTITLE14=Voodo Lake
TTITLE15=On The Hunt
TTITLE16=Was I Right or Wrong
TTITLE17=Whiskey Rock Rolller
EXTD=Muito Bom Demais Da Conta!!!!
EXTT0=
EXTT1=
EXTT2=
EXTT3=
EXTT4=
EXTT5=
EXTT6=
EXTT7=
EXTT8=
EXTT9=
EXTT10=
EXTT11=
EXTT12=
EXTT13=
EXTT14=
EXTT15=
EXTT16=
EXTT17=
PLAYORDER=
